# xmcd
# 
# Track frame offsets:
#     150
#     9341
#     23468
#     38681
#     45713
#     55127
#     69667
#     80960
#     90333
#     101886
#     119160
#     131949
#     141367
#     147717
#     154494
#     174949
# 
# Disc length: 2462
# 
# Revision: 2
# Processed by: cddbd v1.5.2PL0 Copyright (c) Steve Scherf et al.
# Submitted via: BonkEnc v1.0.8
# 
DISCID=e8099c10
DTITLE=GONZALES - PIANO SOLO
DYEAR=0
DGENRE=Ambient
TTITLE0=GOGOL
TTITLE1=MANIFESTO
TTITLE2=OVERNIGHT
TTITLE3=BERMUDA TRIANGLE
TTITLE4=DOT
TTITLE5=ARMELLODIE
TTITLE6=CARNIVALSE
TTITLE7=MEISCHEID
TTITLE8=PARISTOCRATS
TTITLE9=GENTLE THREAT
TTITLE10=THE TOURIST
TTITLE11=SALON SALLOON
TTITLE12=OREGANO
TTITLE13=BASMATI
TTITLE14=CM BLUES
TTITLE15=ONE NOTE AT A TIME
EXTD=
EXTT0=
EXTT1=
EXTT2=
EXTT3=
EXTT4=
EXTT5=
EXTT6=
EXTT7=
EXTT8=
EXTT9=
EXTT10=
EXTT11=
EXTT12=
EXTT13=
EXTT14=
EXTT15=
PLAYORDER=
